<svg xmlns="http://www.w3.org/2000/svg" xmlns:xlink="http://www.w3.org/1999/xlink" version="1.1" id="Calque_1" x="0px" y="0px" style="enable-background:new 0 0 904.5 612;" xml:space="preserve" viewBox="11.7 209.5 879.2 134.1">
<style type="text/css">
	.st0{fill:#333432;}
	.st1{fill:#33BAD6;}
	.st2{enable-background:new    ;}
	.st3{fill:#FFFFFF;}
</style>
<g>
	<path class="st0" d="M117,265.6c-0.3-8.7-0.5-17.6-0.5-26.2h24.9c0,8.7-0.2,17.7-0.7,26.4c-0.4,8.7-0.7,17.4-0.7,26.2   c0,8.6,0.2,17.2,0.7,25.7c0.4,8.5,0.7,17.1,0.7,25.7h-25.5c0-8.7,0.3-17.4,0.8-26s0.8-17.3,0.8-26   C117.5,282.9,117.3,274.3,117,265.6z"/>
</g>
<path class="st1" d="M483.8,299.3H471c-3.1,0-5.6-2.5-5.6-5.6v-12.9c0-3.1,2.5-5.6,5.6-5.6h12.9c3.1,0,5.6,2.5,5.6,5.6v12.9  C489.4,296.8,486.9,299.3,483.8,299.3z"/>
<path class="st1" d="M492.8,343.3h-11.9c-2.2,0-4.1-1.8-4.1-4.1v-11.9c0-2.2,1.8-4.1,4.1-4.1h11.9c2.2,0,4.1,1.8,4.1,4.1v11.9  C496.9,341.5,495.1,343.3,492.8,343.3z"/>
<path class="st1" d="M883.7,240.2H497.9h-3.5l0,0V251c0,3.7-3,6.7-6.7,6.7H476v4c0,4.4,3.6,7.9,8,7.9h16.6c4.4,0,8,3.6,8,8v20.1  c0,4.4-3.6,8-8,8H487v9.9l0,0h19.1c4.4,0,8,3.6,8,8v19.1c0,0.3,0,0.6-0.1,0.9h13.5v-10.8c0-3.3,2.7-5.9,5.9-5.9h12.8  c3.3,0,5.9,2.7,5.9,5.9v10.8h331.5c4,0,7.3-3.2,7.3-7.2v-88.8C891,243.4,887.7,240.2,883.7,240.2z M521.7,250.8  c0-3.2,2.6-5.8,5.8-5.8h13c3.2,0,5.8,2.6,5.8,5.8v13c0,3.2-2.6,5.8-5.8,5.8h-13c-3.2,0-5.8-2.6-5.8-5.8V250.8z M537.7,316.6  c0,2.5-2,4.5-4.5,4.5H522c-2.5,0-4.5-2-4.5-4.5v-11.2c0-2.5,2-4.5,4.5-4.5h11.2c2.5,0,4.5,2,4.5,4.5V316.6z M549.6,291.9  c0,2.1-1.7,3.8-3.8,3.8h-6.4c-2.1,0-3.8-1.7-3.8-3.8v-6.4c0-2.1,1.7-3.8,3.8-3.8h6.4c2.1,0,3.8,1.7,3.8,3.8V291.9z"/>
<g class="st2">
	<path class="st3" d="M561.5,278c0-11.9,8.8-15.7,22.2-15.7c5,0,9.8,0.3,15.2,1.4c0.4,2.4,0.4,5.8,0,8.1c-4.7-0.8-8.9-1.1-13.7-1.1   c-7.7,0-13.8,0.8-13.8,9.2v23.4c0,8.2,6.1,9.2,13.8,9.2c5,0,9.6-1,13.9-2c0.7,2.4,1,5.3,1,8c-5.7,1.8-11.7,2.6-16.4,2.6   c-13.5,0-22.2-3.8-22.2-15.7V278z"/>
	<path class="st3" d="M611.2,263.5H629c13.9,0,22.6,3.9,22.6,14.8v6.1c0,7.7-4.5,11.7-12.2,13.4c5.4,7,9.6,15.2,13,22.3   c-2.9,0.3-7.6,0.3-10.5,0c-3.3-6.8-7.5-14.6-12.7-21.3h-8V320c-3,0.3-6.9,0.3-9.9,0V263.5z M641.6,280.1c0-7.2-5.6-8.1-12.5-8.1h-8   v18.5h8c6.9,0,12.5-1,12.5-7.7V280.1z"/>
	<path class="st3" d="M673.2,296.3l-18.1-32.8c2.9-0.3,7.5-0.3,10.4,0l12.9,25l13.1-25c2.9-0.3,7.2-0.3,10,0l-18.4,32.8V320   c-2.9,0.3-7,0.3-9.9,0V296.3z"/>
	<path class="st3" d="M709,263.5h17.8c13.9,0,22.6,3.9,22.6,15.2v6.3c0,11-8.7,14.8-22.6,14.8h-7.8V320c-2.9,0.3-6.9,0.4-9.9,0   V263.5z M739.4,280.2c0-7.2-5.6-8.2-12.5-8.2h-8v19.5h8c6.9,0,12.5-1.2,12.5-8.1V280.2z"/>
	<path class="st3" d="M771.3,271.6h-16.4c-0.3-2.3-0.3-5.8,0-8.2h42.7c0.3,2.4,0.3,5.9,0,8.2h-16.3V320c-2.9,0.3-7,0.3-9.9,0V271.6z   "/>
	<path class="st3" d="M847.9,305.6c0,11.6-8.7,15.5-21.7,15.5c-13.1,0-21.8-3.9-21.8-15.5v-27.9c0-11.5,8.7-15.4,21.8-15.4   c13,0,21.7,3.9,21.7,15.4V305.6z M838,279.4c0-7.7-5.5-8.7-11.8-8.7c-6.3,0-11.9,1-11.9,8.7v24.5c0,7.6,5.6,8.6,11.9,8.6   c6.3,0,11.8-1,11.8-8.6V279.4z"/>
</g>
<path class="st0" d="M12.5,315.3c0-3.1,0-6.4,0.2-9.8c0.1-3.4,0.2-6.6,0.2-9.6s0-5.1,0-6.4c0-8.3-0.2-16.7-0.5-24.9  c-0.3-8.2-0.5-17.1-0.5-25.4h24.9c0,3.3-0.1,7.3-0.2,10.6c-0.1,3.3-0.3,6.7-0.5,10v64.6c0.3,3.2,0.5,6.4,0.6,9.5  c0.1,3.2,0.2,6.3,0.2,9.5H11.7c0-3.7,0.1-7.3,0.2-11c0.2-3.7,0.4-7.3,0.6-11C12.5,320.4,12.5,318.3,12.5,315.3z M37.7,290.3  c0.2-0.3,0.6-0.8,1.2-1.5l44.2-49.5h22.6l-45.9,48.3l53.6,55.8h-27L38.3,294c-0.6-0.6-0.8-1.3-0.8-2.2  C37.4,291.1,37.5,290.6,37.7,290.3z"/>
<g>
	<path class="st0" d="M184.3,272.9c0-5.8-0.3-12-1-18.6h-2h-2.2c-0.7,0.1-2.4,0.3-5.1,0.6c-2.7,0.3-5.7,0.6-8.8,0.9   s-6.1,0.7-8.8,0.9c-2.7,0.3-4.5,0.5-5.1,0.6h-0.7v-18h87.1v17.8c-4.3,0-8.7-0.4-13-1.2s-8.6-1.2-13-1.2c-0.3,0-1,0-2.1,0.1   c-1,0.1-1.7,0.1-2.1,0.1c-0.2,3.7-0.4,7-0.4,10.1c-0.1,3.1-0.1,6.1-0.2,9.1c-0.1,3-0.1,6-0.1,9.1s0,6.4,0,9.9   c0,8.4,0.3,16.8,0.8,25.2c0.5,8.3,0.8,16.7,0.8,25.2H183c0-8.7,0.2-17.3,0.7-26c0.4-8.7,0.7-17.3,0.7-26   C184.3,284.8,184.3,278.6,184.3,272.9z"/>
</g>
<g>
	<path class="st0" d="M243.3,265c2-7,5.3-12.4,9.9-16.1c4.6-3.8,10.7-6.3,18.3-7.6c7.5-1.3,16.9-1.9,28.1-1.9c0.9,0,2.1,0,3.7,0   c1.7,0,3.3,0.1,4.9,0.2c1.6,0.1,3,0.2,4.2,0.2s2,0,2.2,0s0.7,0,1.3,0c0.8,0,1.6,0,2.4,0c0.9,0,1.7,0,2.5,0s1.3,0,1.7,0   c1,0.2,1.8,0.5,2.5,0.9s1,1.2,1,2.4c-0.1,0.6-0.3,1.6-0.7,3.1c-0.3,1.5-0.7,3.6-1.1,5.4c-0.4,1.8-0.8,3.5-1.1,5   c-0.3,1.5-0.6,2.5-0.7,3.1c-0.9,0-1.8-0.6-2.9-1.8c-1-1.2-1.9-1.9-2.8-2.1c-2.9-1-5.8-1.6-8.7-1.8c-2.9-0.2-5.8-0.3-8.8-0.3   c-6.7,0-12.4,0.8-17,2.5c-4.6,1.7-8.4,3.8-11.2,7.2c-2.9,3.4-4.9,7.5-6.2,12.4c-1.3,4.9-1.9,11-1.9,17.6s0.5,12.4,1.6,17.3   s2.9,9,5.6,12.3s6.3,5.7,10.8,7.2c4.5,1.6,10.3,2.4,17.4,2.4c3.5,0,7.1-0.2,10.7-0.5c3.7-0.3,7.2-1.1,10.6-2.4   c0.8-0.3,1.7-0.9,2.6-1.6s2-1.1,3.1-1.1v13c0,0.2-0.9,0.7-2.8,1.3c-4.1,1.2-8.1,1.9-12,2s-7.9,0.2-12.2,0.2   c-7.7,0-15.1-0.5-22.1-1.4s-13.9-3.3-20.9-7.1c-3.6-1.9-6.3-4.5-8.4-7.7c-2-3.3-3.5-6.8-4.5-10.7c-1-3.9-1.6-7.8-1.8-11.9   s-0.4-7.9-0.4-11.5C240.3,281.6,241.3,272,243.3,265z"/>
</g>
<g>
	<path class="st0" d="M369.5,342.6c-7-0.6-13.3-2.1-19.1-4.6c-5.8-2.4-10.6-6.1-14.3-10.9c-3.7-4.8-5.6-11.5-5.6-19.9v-30.7   c0-5.7,1.2-10.8,3.5-15.4s5.5-8.5,9.3-11.7c3.9-3.2,8.4-5.6,13.4-7.3c5.1-1.7,10.3-2.6,15.8-2.6H406c5.2,0,10.4,0.7,15.6,2.2   c5.2,1.4,9.8,3.6,14,6.5s7.5,6.5,10.1,10.9c2.6,4.4,3.8,9.5,3.8,15.3v32.2c0,5.6-0.9,10.4-2.7,14.4c-1.8,4.1-4.1,7.4-7.1,10.2   c-2.9,2.7-6.4,4.9-10.4,6.6s-8.2,2.9-12.6,3.7c-4.4,0.8-8.9,1.4-13.6,1.7c-4.7,0.3-9.2,0.4-13.5,0.4   C383.2,343.5,376.5,343.2,369.5,342.6z M354.7,309.9c1,5,2.8,9.1,5.5,12.2c2.7,3.2,6.3,5.5,11,7s10.7,2.2,18,2.2   c7.4,0,13.4-0.7,18.3-2c4.8-1.3,8.7-3.5,11.5-6.6s4.8-7.1,6-12c1.2-5,1.8-11.1,1.8-18.4c0-6.8-0.6-12.6-1.8-17.6   c-1.2-5-3.3-9.1-6.2-12.3c-2.9-3.3-6.7-5.7-11.4-7.2c-4.7-1.6-10.6-2.3-17.6-2.3c-6.8,0-12.5,0.8-17.1,2.3   c-4.6,1.5-8.4,3.9-11.3,7.2c-2.9,3.2-5,7.3-6.3,12.2c-1.3,4.9-1.9,10.7-1.9,17.3C353.2,298.9,353.6,304.9,354.7,309.9z"/>
</g>
<path class="st0" d="M462.7,231.5c-1-1.7-1.9-2.8-2.6-3.5c-0.4-0.4-0.9-0.7-1.5-0.9c1.5-0.1,2.8-0.7,3.7-1.6c0.9-1,1.4-2.1,1.4-3.4  c0-0.9-0.3-1.8-0.8-2.6c-0.6-0.8-1.3-1.4-2.2-1.7c-1-0.3-2.5-0.5-4.6-0.5h-6.2V235h2.9v-7.6h1.7c1,0,1.8,0.2,2.3,0.6  c0.8,0.6,1.8,2,3,4.2l1.6,2.8h3.5L462.7,231.5z M456.3,225h-3.5l0,0l0,0v-5.4h3.3c1.4,0,2.4,0.1,2.9,0.3c0.3,0.1,0.5,0.2,0.7,0.4  s0.4,0.3,0.5,0.5c0.3,0.4,0.4,0.9,0.4,1.4c0,0.8-0.3,1.5-0.9,2C459.1,224.8,457.9,225,456.3,225z"/>
<path class="st0" d="M440.8,226.1c0-9.2,7.4-16.6,16.6-16.6l0,0c9.2,0,16.6,7.4,16.6,16.6l0,0c0,9.2-7.4,16.6-16.6,16.6l0,0  C448.2,242.7,440.8,235.3,440.8,226.1L440.8,226.1z M443.2,226.1c0,7.8,6.4,14.2,14.2,14.2l0,0c7.9,0,14.2-6.4,14.2-14.2l0,0  c0-7.9-6.4-14.2-14.2-14.2l0,0C449.5,211.9,443.2,218.2,443.2,226.1L443.2,226.1z"/>
</svg>